%TF.GenerationSoftware,KiCad,Pcbnew,8.0.8-8.0.8-0~ubuntu24.04.1*%
%TF.CreationDate,2025-01-19T21:35:53-03:00*%
%TF.ProjectId,conection,636f6e65-6374-4696-9f6e-2e6b69636164,rev?*%
%TF.SameCoordinates,Original*%
%TF.FileFunction,Legend,Top*%
%TF.FilePolarity,Positive*%
%FSLAX46Y46*%
G04 Gerber Fmt 4.6, Leading zero omitted, Abs format (unit mm)*
G04 Created by KiCad (PCBNEW 8.0.8-8.0.8-0~ubuntu24.04.1) date 2025-01-19 21:35:53*
%MOMM*%
%LPD*%
G01*
G04 APERTURE LIST*
%ADD10C,0.150000*%
%ADD11C,0.120000*%
G04 APERTURE END LIST*
D10*
X158974819Y-62603333D02*
X159689104Y-62603333D01*
X159689104Y-62603333D02*
X159831961Y-62650952D01*
X159831961Y-62650952D02*
X159927200Y-62746190D01*
X159927200Y-62746190D02*
X159974819Y-62889047D01*
X159974819Y-62889047D02*
X159974819Y-62984285D01*
X158974819Y-62222380D02*
X158974819Y-61603333D01*
X158974819Y-61603333D02*
X159355771Y-61936666D01*
X159355771Y-61936666D02*
X159355771Y-61793809D01*
X159355771Y-61793809D02*
X159403390Y-61698571D01*
X159403390Y-61698571D02*
X159451009Y-61650952D01*
X159451009Y-61650952D02*
X159546247Y-61603333D01*
X159546247Y-61603333D02*
X159784342Y-61603333D01*
X159784342Y-61603333D02*
X159879580Y-61650952D01*
X159879580Y-61650952D02*
X159927200Y-61698571D01*
X159927200Y-61698571D02*
X159974819Y-61793809D01*
X159974819Y-61793809D02*
X159974819Y-62079523D01*
X159974819Y-62079523D02*
X159927200Y-62174761D01*
X159927200Y-62174761D02*
X159879580Y-62222380D01*
X125884819Y-48826666D02*
X125408628Y-49159999D01*
X125884819Y-49398094D02*
X124884819Y-49398094D01*
X124884819Y-49398094D02*
X124884819Y-49017142D01*
X124884819Y-49017142D02*
X124932438Y-48921904D01*
X124932438Y-48921904D02*
X124980057Y-48874285D01*
X124980057Y-48874285D02*
X125075295Y-48826666D01*
X125075295Y-48826666D02*
X125218152Y-48826666D01*
X125218152Y-48826666D02*
X125313390Y-48874285D01*
X125313390Y-48874285D02*
X125361009Y-48921904D01*
X125361009Y-48921904D02*
X125408628Y-49017142D01*
X125408628Y-49017142D02*
X125408628Y-49398094D01*
X125313390Y-48255237D02*
X125265771Y-48350475D01*
X125265771Y-48350475D02*
X125218152Y-48398094D01*
X125218152Y-48398094D02*
X125122914Y-48445713D01*
X125122914Y-48445713D02*
X125075295Y-48445713D01*
X125075295Y-48445713D02*
X124980057Y-48398094D01*
X124980057Y-48398094D02*
X124932438Y-48350475D01*
X124932438Y-48350475D02*
X124884819Y-48255237D01*
X124884819Y-48255237D02*
X124884819Y-48064761D01*
X124884819Y-48064761D02*
X124932438Y-47969523D01*
X124932438Y-47969523D02*
X124980057Y-47921904D01*
X124980057Y-47921904D02*
X125075295Y-47874285D01*
X125075295Y-47874285D02*
X125122914Y-47874285D01*
X125122914Y-47874285D02*
X125218152Y-47921904D01*
X125218152Y-47921904D02*
X125265771Y-47969523D01*
X125265771Y-47969523D02*
X125313390Y-48064761D01*
X125313390Y-48064761D02*
X125313390Y-48255237D01*
X125313390Y-48255237D02*
X125361009Y-48350475D01*
X125361009Y-48350475D02*
X125408628Y-48398094D01*
X125408628Y-48398094D02*
X125503866Y-48445713D01*
X125503866Y-48445713D02*
X125694342Y-48445713D01*
X125694342Y-48445713D02*
X125789580Y-48398094D01*
X125789580Y-48398094D02*
X125837200Y-48350475D01*
X125837200Y-48350475D02*
X125884819Y-48255237D01*
X125884819Y-48255237D02*
X125884819Y-48064761D01*
X125884819Y-48064761D02*
X125837200Y-47969523D01*
X125837200Y-47969523D02*
X125789580Y-47921904D01*
X125789580Y-47921904D02*
X125694342Y-47874285D01*
X125694342Y-47874285D02*
X125503866Y-47874285D01*
X125503866Y-47874285D02*
X125408628Y-47921904D01*
X125408628Y-47921904D02*
X125361009Y-47969523D01*
X125361009Y-47969523D02*
X125313390Y-48064761D01*
X100424819Y-125746666D02*
X99948628Y-126079999D01*
X100424819Y-126318094D02*
X99424819Y-126318094D01*
X99424819Y-126318094D02*
X99424819Y-125937142D01*
X99424819Y-125937142D02*
X99472438Y-125841904D01*
X99472438Y-125841904D02*
X99520057Y-125794285D01*
X99520057Y-125794285D02*
X99615295Y-125746666D01*
X99615295Y-125746666D02*
X99758152Y-125746666D01*
X99758152Y-125746666D02*
X99853390Y-125794285D01*
X99853390Y-125794285D02*
X99901009Y-125841904D01*
X99901009Y-125841904D02*
X99948628Y-125937142D01*
X99948628Y-125937142D02*
X99948628Y-126318094D01*
X99520057Y-125365713D02*
X99472438Y-125318094D01*
X99472438Y-125318094D02*
X99424819Y-125222856D01*
X99424819Y-125222856D02*
X99424819Y-124984761D01*
X99424819Y-124984761D02*
X99472438Y-124889523D01*
X99472438Y-124889523D02*
X99520057Y-124841904D01*
X99520057Y-124841904D02*
X99615295Y-124794285D01*
X99615295Y-124794285D02*
X99710533Y-124794285D01*
X99710533Y-124794285D02*
X99853390Y-124841904D01*
X99853390Y-124841904D02*
X100424819Y-125413332D01*
X100424819Y-125413332D02*
X100424819Y-124794285D01*
X83414819Y-103873333D02*
X84129104Y-103873333D01*
X84129104Y-103873333D02*
X84271961Y-103920952D01*
X84271961Y-103920952D02*
X84367200Y-104016190D01*
X84367200Y-104016190D02*
X84414819Y-104159047D01*
X84414819Y-104159047D02*
X84414819Y-104254285D01*
X84414819Y-102873333D02*
X84414819Y-103444761D01*
X84414819Y-103159047D02*
X83414819Y-103159047D01*
X83414819Y-103159047D02*
X83557676Y-103254285D01*
X83557676Y-103254285D02*
X83652914Y-103349523D01*
X83652914Y-103349523D02*
X83700533Y-103444761D01*
X129084819Y-48816666D02*
X128608628Y-49149999D01*
X129084819Y-49388094D02*
X128084819Y-49388094D01*
X128084819Y-49388094D02*
X128084819Y-49007142D01*
X128084819Y-49007142D02*
X128132438Y-48911904D01*
X128132438Y-48911904D02*
X128180057Y-48864285D01*
X128180057Y-48864285D02*
X128275295Y-48816666D01*
X128275295Y-48816666D02*
X128418152Y-48816666D01*
X128418152Y-48816666D02*
X128513390Y-48864285D01*
X128513390Y-48864285D02*
X128561009Y-48911904D01*
X128561009Y-48911904D02*
X128608628Y-49007142D01*
X128608628Y-49007142D02*
X128608628Y-49388094D01*
X128084819Y-48483332D02*
X128084819Y-47816666D01*
X128084819Y-47816666D02*
X129084819Y-48245237D01*
X150404819Y-101499523D02*
X151119104Y-101499523D01*
X151119104Y-101499523D02*
X151261961Y-101547142D01*
X151261961Y-101547142D02*
X151357200Y-101642380D01*
X151357200Y-101642380D02*
X151404819Y-101785237D01*
X151404819Y-101785237D02*
X151404819Y-101880475D01*
X151404819Y-100499523D02*
X151404819Y-101070951D01*
X151404819Y-100785237D02*
X150404819Y-100785237D01*
X150404819Y-100785237D02*
X150547676Y-100880475D01*
X150547676Y-100880475D02*
X150642914Y-100975713D01*
X150642914Y-100975713D02*
X150690533Y-101070951D01*
X150404819Y-99880475D02*
X150404819Y-99785237D01*
X150404819Y-99785237D02*
X150452438Y-99689999D01*
X150452438Y-99689999D02*
X150500057Y-99642380D01*
X150500057Y-99642380D02*
X150595295Y-99594761D01*
X150595295Y-99594761D02*
X150785771Y-99547142D01*
X150785771Y-99547142D02*
X151023866Y-99547142D01*
X151023866Y-99547142D02*
X151214342Y-99594761D01*
X151214342Y-99594761D02*
X151309580Y-99642380D01*
X151309580Y-99642380D02*
X151357200Y-99689999D01*
X151357200Y-99689999D02*
X151404819Y-99785237D01*
X151404819Y-99785237D02*
X151404819Y-99880475D01*
X151404819Y-99880475D02*
X151357200Y-99975713D01*
X151357200Y-99975713D02*
X151309580Y-100023332D01*
X151309580Y-100023332D02*
X151214342Y-100070951D01*
X151214342Y-100070951D02*
X151023866Y-100118570D01*
X151023866Y-100118570D02*
X150785771Y-100118570D01*
X150785771Y-100118570D02*
X150595295Y-100070951D01*
X150595295Y-100070951D02*
X150500057Y-100023332D01*
X150500057Y-100023332D02*
X150452438Y-99975713D01*
X150452438Y-99975713D02*
X150404819Y-99880475D01*
X139157142Y-73214819D02*
X138823809Y-72738628D01*
X138585714Y-73214819D02*
X138585714Y-72214819D01*
X138585714Y-72214819D02*
X138966666Y-72214819D01*
X138966666Y-72214819D02*
X139061904Y-72262438D01*
X139061904Y-72262438D02*
X139109523Y-72310057D01*
X139109523Y-72310057D02*
X139157142Y-72405295D01*
X139157142Y-72405295D02*
X139157142Y-72548152D01*
X139157142Y-72548152D02*
X139109523Y-72643390D01*
X139109523Y-72643390D02*
X139061904Y-72691009D01*
X139061904Y-72691009D02*
X138966666Y-72738628D01*
X138966666Y-72738628D02*
X138585714Y-72738628D01*
X140109523Y-73214819D02*
X139538095Y-73214819D01*
X139823809Y-73214819D02*
X139823809Y-72214819D01*
X139823809Y-72214819D02*
X139728571Y-72357676D01*
X139728571Y-72357676D02*
X139633333Y-72452914D01*
X139633333Y-72452914D02*
X139538095Y-72500533D01*
X140728571Y-72214819D02*
X140823809Y-72214819D01*
X140823809Y-72214819D02*
X140919047Y-72262438D01*
X140919047Y-72262438D02*
X140966666Y-72310057D01*
X140966666Y-72310057D02*
X141014285Y-72405295D01*
X141014285Y-72405295D02*
X141061904Y-72595771D01*
X141061904Y-72595771D02*
X141061904Y-72833866D01*
X141061904Y-72833866D02*
X141014285Y-73024342D01*
X141014285Y-73024342D02*
X140966666Y-73119580D01*
X140966666Y-73119580D02*
X140919047Y-73167200D01*
X140919047Y-73167200D02*
X140823809Y-73214819D01*
X140823809Y-73214819D02*
X140728571Y-73214819D01*
X140728571Y-73214819D02*
X140633333Y-73167200D01*
X140633333Y-73167200D02*
X140585714Y-73119580D01*
X140585714Y-73119580D02*
X140538095Y-73024342D01*
X140538095Y-73024342D02*
X140490476Y-72833866D01*
X140490476Y-72833866D02*
X140490476Y-72595771D01*
X140490476Y-72595771D02*
X140538095Y-72405295D01*
X140538095Y-72405295D02*
X140585714Y-72310057D01*
X140585714Y-72310057D02*
X140633333Y-72262438D01*
X140633333Y-72262438D02*
X140728571Y-72214819D01*
X98744819Y-51219523D02*
X99459104Y-51219523D01*
X99459104Y-51219523D02*
X99601961Y-51267142D01*
X99601961Y-51267142D02*
X99697200Y-51362380D01*
X99697200Y-51362380D02*
X99744819Y-51505237D01*
X99744819Y-51505237D02*
X99744819Y-51600475D01*
X99744819Y-50219523D02*
X99744819Y-50790951D01*
X99744819Y-50505237D02*
X98744819Y-50505237D01*
X98744819Y-50505237D02*
X98887676Y-50600475D01*
X98887676Y-50600475D02*
X98982914Y-50695713D01*
X98982914Y-50695713D02*
X99030533Y-50790951D01*
X99744819Y-49267142D02*
X99744819Y-49838570D01*
X99744819Y-49552856D02*
X98744819Y-49552856D01*
X98744819Y-49552856D02*
X98887676Y-49648094D01*
X98887676Y-49648094D02*
X98982914Y-49743332D01*
X98982914Y-49743332D02*
X99030533Y-49838570D01*
X97073333Y-100684819D02*
X96740000Y-100208628D01*
X96501905Y-100684819D02*
X96501905Y-99684819D01*
X96501905Y-99684819D02*
X96882857Y-99684819D01*
X96882857Y-99684819D02*
X96978095Y-99732438D01*
X96978095Y-99732438D02*
X97025714Y-99780057D01*
X97025714Y-99780057D02*
X97073333Y-99875295D01*
X97073333Y-99875295D02*
X97073333Y-100018152D01*
X97073333Y-100018152D02*
X97025714Y-100113390D01*
X97025714Y-100113390D02*
X96978095Y-100161009D01*
X96978095Y-100161009D02*
X96882857Y-100208628D01*
X96882857Y-100208628D02*
X96501905Y-100208628D01*
X97930476Y-99684819D02*
X97740000Y-99684819D01*
X97740000Y-99684819D02*
X97644762Y-99732438D01*
X97644762Y-99732438D02*
X97597143Y-99780057D01*
X97597143Y-99780057D02*
X97501905Y-99922914D01*
X97501905Y-99922914D02*
X97454286Y-100113390D01*
X97454286Y-100113390D02*
X97454286Y-100494342D01*
X97454286Y-100494342D02*
X97501905Y-100589580D01*
X97501905Y-100589580D02*
X97549524Y-100637200D01*
X97549524Y-100637200D02*
X97644762Y-100684819D01*
X97644762Y-100684819D02*
X97835238Y-100684819D01*
X97835238Y-100684819D02*
X97930476Y-100637200D01*
X97930476Y-100637200D02*
X97978095Y-100589580D01*
X97978095Y-100589580D02*
X98025714Y-100494342D01*
X98025714Y-100494342D02*
X98025714Y-100256247D01*
X98025714Y-100256247D02*
X97978095Y-100161009D01*
X97978095Y-100161009D02*
X97930476Y-100113390D01*
X97930476Y-100113390D02*
X97835238Y-100065771D01*
X97835238Y-100065771D02*
X97644762Y-100065771D01*
X97644762Y-100065771D02*
X97549524Y-100113390D01*
X97549524Y-100113390D02*
X97501905Y-100161009D01*
X97501905Y-100161009D02*
X97454286Y-100256247D01*
X103836666Y-53824819D02*
X103836666Y-54539104D01*
X103836666Y-54539104D02*
X103789047Y-54681961D01*
X103789047Y-54681961D02*
X103693809Y-54777200D01*
X103693809Y-54777200D02*
X103550952Y-54824819D01*
X103550952Y-54824819D02*
X103455714Y-54824819D01*
X104741428Y-53824819D02*
X104550952Y-53824819D01*
X104550952Y-53824819D02*
X104455714Y-53872438D01*
X104455714Y-53872438D02*
X104408095Y-53920057D01*
X104408095Y-53920057D02*
X104312857Y-54062914D01*
X104312857Y-54062914D02*
X104265238Y-54253390D01*
X104265238Y-54253390D02*
X104265238Y-54634342D01*
X104265238Y-54634342D02*
X104312857Y-54729580D01*
X104312857Y-54729580D02*
X104360476Y-54777200D01*
X104360476Y-54777200D02*
X104455714Y-54824819D01*
X104455714Y-54824819D02*
X104646190Y-54824819D01*
X104646190Y-54824819D02*
X104741428Y-54777200D01*
X104741428Y-54777200D02*
X104789047Y-54729580D01*
X104789047Y-54729580D02*
X104836666Y-54634342D01*
X104836666Y-54634342D02*
X104836666Y-54396247D01*
X104836666Y-54396247D02*
X104789047Y-54301009D01*
X104789047Y-54301009D02*
X104741428Y-54253390D01*
X104741428Y-54253390D02*
X104646190Y-54205771D01*
X104646190Y-54205771D02*
X104455714Y-54205771D01*
X104455714Y-54205771D02*
X104360476Y-54253390D01*
X104360476Y-54253390D02*
X104312857Y-54301009D01*
X104312857Y-54301009D02*
X104265238Y-54396247D01*
X140763333Y-68194819D02*
X140430000Y-67718628D01*
X140191905Y-68194819D02*
X140191905Y-67194819D01*
X140191905Y-67194819D02*
X140572857Y-67194819D01*
X140572857Y-67194819D02*
X140668095Y-67242438D01*
X140668095Y-67242438D02*
X140715714Y-67290057D01*
X140715714Y-67290057D02*
X140763333Y-67385295D01*
X140763333Y-67385295D02*
X140763333Y-67528152D01*
X140763333Y-67528152D02*
X140715714Y-67623390D01*
X140715714Y-67623390D02*
X140668095Y-67671009D01*
X140668095Y-67671009D02*
X140572857Y-67718628D01*
X140572857Y-67718628D02*
X140191905Y-67718628D01*
X141239524Y-68194819D02*
X141430000Y-68194819D01*
X141430000Y-68194819D02*
X141525238Y-68147200D01*
X141525238Y-68147200D02*
X141572857Y-68099580D01*
X141572857Y-68099580D02*
X141668095Y-67956723D01*
X141668095Y-67956723D02*
X141715714Y-67766247D01*
X141715714Y-67766247D02*
X141715714Y-67385295D01*
X141715714Y-67385295D02*
X141668095Y-67290057D01*
X141668095Y-67290057D02*
X141620476Y-67242438D01*
X141620476Y-67242438D02*
X141525238Y-67194819D01*
X141525238Y-67194819D02*
X141334762Y-67194819D01*
X141334762Y-67194819D02*
X141239524Y-67242438D01*
X141239524Y-67242438D02*
X141191905Y-67290057D01*
X141191905Y-67290057D02*
X141144286Y-67385295D01*
X141144286Y-67385295D02*
X141144286Y-67623390D01*
X141144286Y-67623390D02*
X141191905Y-67718628D01*
X141191905Y-67718628D02*
X141239524Y-67766247D01*
X141239524Y-67766247D02*
X141334762Y-67813866D01*
X141334762Y-67813866D02*
X141525238Y-67813866D01*
X141525238Y-67813866D02*
X141620476Y-67766247D01*
X141620476Y-67766247D02*
X141668095Y-67718628D01*
X141668095Y-67718628D02*
X141715714Y-67623390D01*
X91896666Y-115524819D02*
X91896666Y-116239104D01*
X91896666Y-116239104D02*
X91849047Y-116381961D01*
X91849047Y-116381961D02*
X91753809Y-116477200D01*
X91753809Y-116477200D02*
X91610952Y-116524819D01*
X91610952Y-116524819D02*
X91515714Y-116524819D01*
X92420476Y-116524819D02*
X92610952Y-116524819D01*
X92610952Y-116524819D02*
X92706190Y-116477200D01*
X92706190Y-116477200D02*
X92753809Y-116429580D01*
X92753809Y-116429580D02*
X92849047Y-116286723D01*
X92849047Y-116286723D02*
X92896666Y-116096247D01*
X92896666Y-116096247D02*
X92896666Y-115715295D01*
X92896666Y-115715295D02*
X92849047Y-115620057D01*
X92849047Y-115620057D02*
X92801428Y-115572438D01*
X92801428Y-115572438D02*
X92706190Y-115524819D01*
X92706190Y-115524819D02*
X92515714Y-115524819D01*
X92515714Y-115524819D02*
X92420476Y-115572438D01*
X92420476Y-115572438D02*
X92372857Y-115620057D01*
X92372857Y-115620057D02*
X92325238Y-115715295D01*
X92325238Y-115715295D02*
X92325238Y-115953390D01*
X92325238Y-115953390D02*
X92372857Y-116048628D01*
X92372857Y-116048628D02*
X92420476Y-116096247D01*
X92420476Y-116096247D02*
X92515714Y-116143866D01*
X92515714Y-116143866D02*
X92706190Y-116143866D01*
X92706190Y-116143866D02*
X92801428Y-116096247D01*
X92801428Y-116096247D02*
X92849047Y-116048628D01*
X92849047Y-116048628D02*
X92896666Y-115953390D01*
X104574819Y-146033333D02*
X105289104Y-146033333D01*
X105289104Y-146033333D02*
X105431961Y-146080952D01*
X105431961Y-146080952D02*
X105527200Y-146176190D01*
X105527200Y-146176190D02*
X105574819Y-146319047D01*
X105574819Y-146319047D02*
X105574819Y-146414285D01*
X105003390Y-145414285D02*
X104955771Y-145509523D01*
X104955771Y-145509523D02*
X104908152Y-145557142D01*
X104908152Y-145557142D02*
X104812914Y-145604761D01*
X104812914Y-145604761D02*
X104765295Y-145604761D01*
X104765295Y-145604761D02*
X104670057Y-145557142D01*
X104670057Y-145557142D02*
X104622438Y-145509523D01*
X104622438Y-145509523D02*
X104574819Y-145414285D01*
X104574819Y-145414285D02*
X104574819Y-145223809D01*
X104574819Y-145223809D02*
X104622438Y-145128571D01*
X104622438Y-145128571D02*
X104670057Y-145080952D01*
X104670057Y-145080952D02*
X104765295Y-145033333D01*
X104765295Y-145033333D02*
X104812914Y-145033333D01*
X104812914Y-145033333D02*
X104908152Y-145080952D01*
X104908152Y-145080952D02*
X104955771Y-145128571D01*
X104955771Y-145128571D02*
X105003390Y-145223809D01*
X105003390Y-145223809D02*
X105003390Y-145414285D01*
X105003390Y-145414285D02*
X105051009Y-145509523D01*
X105051009Y-145509523D02*
X105098628Y-145557142D01*
X105098628Y-145557142D02*
X105193866Y-145604761D01*
X105193866Y-145604761D02*
X105384342Y-145604761D01*
X105384342Y-145604761D02*
X105479580Y-145557142D01*
X105479580Y-145557142D02*
X105527200Y-145509523D01*
X105527200Y-145509523D02*
X105574819Y-145414285D01*
X105574819Y-145414285D02*
X105574819Y-145223809D01*
X105574819Y-145223809D02*
X105527200Y-145128571D01*
X105527200Y-145128571D02*
X105479580Y-145080952D01*
X105479580Y-145080952D02*
X105384342Y-145033333D01*
X105384342Y-145033333D02*
X105193866Y-145033333D01*
X105193866Y-145033333D02*
X105098628Y-145080952D01*
X105098628Y-145080952D02*
X105051009Y-145128571D01*
X105051009Y-145128571D02*
X105003390Y-145223809D01*
X150196666Y-39464819D02*
X150196666Y-40179104D01*
X150196666Y-40179104D02*
X150149047Y-40321961D01*
X150149047Y-40321961D02*
X150053809Y-40417200D01*
X150053809Y-40417200D02*
X149910952Y-40464819D01*
X149910952Y-40464819D02*
X149815714Y-40464819D01*
X150625238Y-39560057D02*
X150672857Y-39512438D01*
X150672857Y-39512438D02*
X150768095Y-39464819D01*
X150768095Y-39464819D02*
X151006190Y-39464819D01*
X151006190Y-39464819D02*
X151101428Y-39512438D01*
X151101428Y-39512438D02*
X151149047Y-39560057D01*
X151149047Y-39560057D02*
X151196666Y-39655295D01*
X151196666Y-39655295D02*
X151196666Y-39750533D01*
X151196666Y-39750533D02*
X151149047Y-39893390D01*
X151149047Y-39893390D02*
X150577619Y-40464819D01*
X150577619Y-40464819D02*
X151196666Y-40464819D01*
X92523333Y-149044819D02*
X92190000Y-148568628D01*
X91951905Y-149044819D02*
X91951905Y-148044819D01*
X91951905Y-148044819D02*
X92332857Y-148044819D01*
X92332857Y-148044819D02*
X92428095Y-148092438D01*
X92428095Y-148092438D02*
X92475714Y-148140057D01*
X92475714Y-148140057D02*
X92523333Y-148235295D01*
X92523333Y-148235295D02*
X92523333Y-148378152D01*
X92523333Y-148378152D02*
X92475714Y-148473390D01*
X92475714Y-148473390D02*
X92428095Y-148521009D01*
X92428095Y-148521009D02*
X92332857Y-148568628D01*
X92332857Y-148568628D02*
X91951905Y-148568628D01*
X93380476Y-148378152D02*
X93380476Y-149044819D01*
X93142381Y-147997200D02*
X92904286Y-148711485D01*
X92904286Y-148711485D02*
X93523333Y-148711485D01*
X128446666Y-53784819D02*
X128446666Y-54499104D01*
X128446666Y-54499104D02*
X128399047Y-54641961D01*
X128399047Y-54641961D02*
X128303809Y-54737200D01*
X128303809Y-54737200D02*
X128160952Y-54784819D01*
X128160952Y-54784819D02*
X128065714Y-54784819D01*
X129399047Y-53784819D02*
X128922857Y-53784819D01*
X128922857Y-53784819D02*
X128875238Y-54261009D01*
X128875238Y-54261009D02*
X128922857Y-54213390D01*
X128922857Y-54213390D02*
X129018095Y-54165771D01*
X129018095Y-54165771D02*
X129256190Y-54165771D01*
X129256190Y-54165771D02*
X129351428Y-54213390D01*
X129351428Y-54213390D02*
X129399047Y-54261009D01*
X129399047Y-54261009D02*
X129446666Y-54356247D01*
X129446666Y-54356247D02*
X129446666Y-54594342D01*
X129446666Y-54594342D02*
X129399047Y-54689580D01*
X129399047Y-54689580D02*
X129351428Y-54737200D01*
X129351428Y-54737200D02*
X129256190Y-54784819D01*
X129256190Y-54784819D02*
X129018095Y-54784819D01*
X129018095Y-54784819D02*
X128922857Y-54737200D01*
X128922857Y-54737200D02*
X128875238Y-54689580D01*
X97363333Y-104494819D02*
X97030000Y-104018628D01*
X96791905Y-104494819D02*
X96791905Y-103494819D01*
X96791905Y-103494819D02*
X97172857Y-103494819D01*
X97172857Y-103494819D02*
X97268095Y-103542438D01*
X97268095Y-103542438D02*
X97315714Y-103590057D01*
X97315714Y-103590057D02*
X97363333Y-103685295D01*
X97363333Y-103685295D02*
X97363333Y-103828152D01*
X97363333Y-103828152D02*
X97315714Y-103923390D01*
X97315714Y-103923390D02*
X97268095Y-103971009D01*
X97268095Y-103971009D02*
X97172857Y-104018628D01*
X97172857Y-104018628D02*
X96791905Y-104018628D01*
X98268095Y-103494819D02*
X97791905Y-103494819D01*
X97791905Y-103494819D02*
X97744286Y-103971009D01*
X97744286Y-103971009D02*
X97791905Y-103923390D01*
X97791905Y-103923390D02*
X97887143Y-103875771D01*
X97887143Y-103875771D02*
X98125238Y-103875771D01*
X98125238Y-103875771D02*
X98220476Y-103923390D01*
X98220476Y-103923390D02*
X98268095Y-103971009D01*
X98268095Y-103971009D02*
X98315714Y-104066247D01*
X98315714Y-104066247D02*
X98315714Y-104304342D01*
X98315714Y-104304342D02*
X98268095Y-104399580D01*
X98268095Y-104399580D02*
X98220476Y-104447200D01*
X98220476Y-104447200D02*
X98125238Y-104494819D01*
X98125238Y-104494819D02*
X97887143Y-104494819D01*
X97887143Y-104494819D02*
X97791905Y-104447200D01*
X97791905Y-104447200D02*
X97744286Y-104399580D01*
X95514819Y-139516666D02*
X95038628Y-139849999D01*
X95514819Y-140088094D02*
X94514819Y-140088094D01*
X94514819Y-140088094D02*
X94514819Y-139707142D01*
X94514819Y-139707142D02*
X94562438Y-139611904D01*
X94562438Y-139611904D02*
X94610057Y-139564285D01*
X94610057Y-139564285D02*
X94705295Y-139516666D01*
X94705295Y-139516666D02*
X94848152Y-139516666D01*
X94848152Y-139516666D02*
X94943390Y-139564285D01*
X94943390Y-139564285D02*
X94991009Y-139611904D01*
X94991009Y-139611904D02*
X95038628Y-139707142D01*
X95038628Y-139707142D02*
X95038628Y-140088094D01*
X95514819Y-138564285D02*
X95514819Y-139135713D01*
X95514819Y-138849999D02*
X94514819Y-138849999D01*
X94514819Y-138849999D02*
X94657676Y-138945237D01*
X94657676Y-138945237D02*
X94752914Y-139040475D01*
X94752914Y-139040475D02*
X94800533Y-139135713D01*
X159374819Y-77763333D02*
X160089104Y-77763333D01*
X160089104Y-77763333D02*
X160231961Y-77810952D01*
X160231961Y-77810952D02*
X160327200Y-77906190D01*
X160327200Y-77906190D02*
X160374819Y-78049047D01*
X160374819Y-78049047D02*
X160374819Y-78144285D01*
X159708152Y-76858571D02*
X160374819Y-76858571D01*
X159327200Y-77096666D02*
X160041485Y-77334761D01*
X160041485Y-77334761D02*
X160041485Y-76715714D01*
X92573333Y-151914819D02*
X92240000Y-151438628D01*
X92001905Y-151914819D02*
X92001905Y-150914819D01*
X92001905Y-150914819D02*
X92382857Y-150914819D01*
X92382857Y-150914819D02*
X92478095Y-150962438D01*
X92478095Y-150962438D02*
X92525714Y-151010057D01*
X92525714Y-151010057D02*
X92573333Y-151105295D01*
X92573333Y-151105295D02*
X92573333Y-151248152D01*
X92573333Y-151248152D02*
X92525714Y-151343390D01*
X92525714Y-151343390D02*
X92478095Y-151391009D01*
X92478095Y-151391009D02*
X92382857Y-151438628D01*
X92382857Y-151438628D02*
X92001905Y-151438628D01*
X92906667Y-150914819D02*
X93525714Y-150914819D01*
X93525714Y-150914819D02*
X93192381Y-151295771D01*
X93192381Y-151295771D02*
X93335238Y-151295771D01*
X93335238Y-151295771D02*
X93430476Y-151343390D01*
X93430476Y-151343390D02*
X93478095Y-151391009D01*
X93478095Y-151391009D02*
X93525714Y-151486247D01*
X93525714Y-151486247D02*
X93525714Y-151724342D01*
X93525714Y-151724342D02*
X93478095Y-151819580D01*
X93478095Y-151819580D02*
X93430476Y-151867200D01*
X93430476Y-151867200D02*
X93335238Y-151914819D01*
X93335238Y-151914819D02*
X93049524Y-151914819D01*
X93049524Y-151914819D02*
X92954286Y-151867200D01*
X92954286Y-151867200D02*
X92906667Y-151819580D01*
X91174819Y-64949523D02*
X91889104Y-64949523D01*
X91889104Y-64949523D02*
X92031961Y-64997142D01*
X92031961Y-64997142D02*
X92127200Y-65092380D01*
X92127200Y-65092380D02*
X92174819Y-65235237D01*
X92174819Y-65235237D02*
X92174819Y-65330475D01*
X92174819Y-63949523D02*
X92174819Y-64520951D01*
X92174819Y-64235237D02*
X91174819Y-64235237D01*
X91174819Y-64235237D02*
X91317676Y-64330475D01*
X91317676Y-64330475D02*
X91412914Y-64425713D01*
X91412914Y-64425713D02*
X91460533Y-64520951D01*
X91174819Y-63616189D02*
X91174819Y-62997142D01*
X91174819Y-62997142D02*
X91555771Y-63330475D01*
X91555771Y-63330475D02*
X91555771Y-63187618D01*
X91555771Y-63187618D02*
X91603390Y-63092380D01*
X91603390Y-63092380D02*
X91651009Y-63044761D01*
X91651009Y-63044761D02*
X91746247Y-62997142D01*
X91746247Y-62997142D02*
X91984342Y-62997142D01*
X91984342Y-62997142D02*
X92079580Y-63044761D01*
X92079580Y-63044761D02*
X92127200Y-63092380D01*
X92127200Y-63092380D02*
X92174819Y-63187618D01*
X92174819Y-63187618D02*
X92174819Y-63473332D01*
X92174819Y-63473332D02*
X92127200Y-63568570D01*
X92127200Y-63568570D02*
X92079580Y-63616189D01*
X151194819Y-89959523D02*
X151909104Y-89959523D01*
X151909104Y-89959523D02*
X152051961Y-90007142D01*
X152051961Y-90007142D02*
X152147200Y-90102380D01*
X152147200Y-90102380D02*
X152194819Y-90245237D01*
X152194819Y-90245237D02*
X152194819Y-90340475D01*
X152194819Y-88959523D02*
X152194819Y-89530951D01*
X152194819Y-89245237D02*
X151194819Y-89245237D01*
X151194819Y-89245237D02*
X151337676Y-89340475D01*
X151337676Y-89340475D02*
X151432914Y-89435713D01*
X151432914Y-89435713D02*
X151480533Y-89530951D01*
X151194819Y-88054761D02*
X151194819Y-88530951D01*
X151194819Y-88530951D02*
X151671009Y-88578570D01*
X151671009Y-88578570D02*
X151623390Y-88530951D01*
X151623390Y-88530951D02*
X151575771Y-88435713D01*
X151575771Y-88435713D02*
X151575771Y-88197618D01*
X151575771Y-88197618D02*
X151623390Y-88102380D01*
X151623390Y-88102380D02*
X151671009Y-88054761D01*
X151671009Y-88054761D02*
X151766247Y-88007142D01*
X151766247Y-88007142D02*
X152004342Y-88007142D01*
X152004342Y-88007142D02*
X152099580Y-88054761D01*
X152099580Y-88054761D02*
X152147200Y-88102380D01*
X152147200Y-88102380D02*
X152194819Y-88197618D01*
X152194819Y-88197618D02*
X152194819Y-88435713D01*
X152194819Y-88435713D02*
X152147200Y-88530951D01*
X152147200Y-88530951D02*
X152099580Y-88578570D01*
X104534819Y-119813333D02*
X105249104Y-119813333D01*
X105249104Y-119813333D02*
X105391961Y-119860952D01*
X105391961Y-119860952D02*
X105487200Y-119956190D01*
X105487200Y-119956190D02*
X105534819Y-120099047D01*
X105534819Y-120099047D02*
X105534819Y-120194285D01*
X104534819Y-119432380D02*
X104534819Y-118765714D01*
X104534819Y-118765714D02*
X105534819Y-119194285D01*
X91124819Y-77849523D02*
X91839104Y-77849523D01*
X91839104Y-77849523D02*
X91981961Y-77897142D01*
X91981961Y-77897142D02*
X92077200Y-77992380D01*
X92077200Y-77992380D02*
X92124819Y-78135237D01*
X92124819Y-78135237D02*
X92124819Y-78230475D01*
X92124819Y-76849523D02*
X92124819Y-77420951D01*
X92124819Y-77135237D02*
X91124819Y-77135237D01*
X91124819Y-77135237D02*
X91267676Y-77230475D01*
X91267676Y-77230475D02*
X91362914Y-77325713D01*
X91362914Y-77325713D02*
X91410533Y-77420951D01*
X91458152Y-75992380D02*
X92124819Y-75992380D01*
X91077200Y-76230475D02*
X91791485Y-76468570D01*
X91791485Y-76468570D02*
X91791485Y-75849523D01*
X141884819Y-111229523D02*
X142599104Y-111229523D01*
X142599104Y-111229523D02*
X142741961Y-111277142D01*
X142741961Y-111277142D02*
X142837200Y-111372380D01*
X142837200Y-111372380D02*
X142884819Y-111515237D01*
X142884819Y-111515237D02*
X142884819Y-111610475D01*
X142884819Y-110229523D02*
X142884819Y-110800951D01*
X142884819Y-110515237D02*
X141884819Y-110515237D01*
X141884819Y-110515237D02*
X142027676Y-110610475D01*
X142027676Y-110610475D02*
X142122914Y-110705713D01*
X142122914Y-110705713D02*
X142170533Y-110800951D01*
X141980057Y-109848570D02*
X141932438Y-109800951D01*
X141932438Y-109800951D02*
X141884819Y-109705713D01*
X141884819Y-109705713D02*
X141884819Y-109467618D01*
X141884819Y-109467618D02*
X141932438Y-109372380D01*
X141932438Y-109372380D02*
X141980057Y-109324761D01*
X141980057Y-109324761D02*
X142075295Y-109277142D01*
X142075295Y-109277142D02*
X142170533Y-109277142D01*
X142170533Y-109277142D02*
X142313390Y-109324761D01*
X142313390Y-109324761D02*
X142884819Y-109896189D01*
X142884819Y-109896189D02*
X142884819Y-109277142D01*
D11*
%TO.C,J3*%
X152460000Y-55960000D02*
X152460000Y-68580000D01*
X152460000Y-68580000D02*
X158430000Y-68580000D01*
X153220000Y-56720000D02*
X153220000Y-62270000D01*
X153220000Y-67820000D02*
X153220000Y-62270000D01*
X156170000Y-55970000D02*
X156170000Y-56720000D01*
X156170000Y-56720000D02*
X153220000Y-56720000D01*
X156170000Y-67820000D02*
X153220000Y-67820000D01*
X156170000Y-68570000D02*
X156170000Y-67820000D01*
X157670000Y-55970000D02*
X157670000Y-57770000D01*
X157670000Y-57770000D02*
X158420000Y-57770000D01*
X157670000Y-59270000D02*
X157670000Y-65270000D01*
X157670000Y-65270000D02*
X158420000Y-65270000D01*
X157670000Y-66770000D02*
X157670000Y-68570000D01*
X157670000Y-68570000D02*
X158420000Y-68570000D01*
X158420000Y-55970000D02*
X157670000Y-55970000D01*
X158420000Y-57770000D02*
X158420000Y-55970000D01*
X158420000Y-59270000D02*
X157670000Y-59270000D01*
X158420000Y-65270000D02*
X158420000Y-59270000D01*
X158420000Y-66770000D02*
X157670000Y-66770000D01*
X158420000Y-68570000D02*
X158420000Y-66770000D01*
X158430000Y-55960000D02*
X152460000Y-55960000D01*
X158430000Y-68580000D02*
X158430000Y-55960000D01*
X158720000Y-55670000D02*
X157470000Y-55670000D01*
X158720000Y-56920000D02*
X158720000Y-55670000D01*
%TO.C,R8*%
X126430000Y-50580000D02*
X126430000Y-46740000D01*
X128270000Y-50580000D02*
X128270000Y-46740000D01*
%TO.C,R2*%
X97130000Y-123660000D02*
X97130000Y-127500000D01*
X98970000Y-123660000D02*
X98970000Y-127500000D01*
%TO.C,J1*%
X84760000Y-108890000D02*
X84760000Y-110140000D01*
X84760000Y-110140000D02*
X86010000Y-110140000D01*
X85050000Y-97230000D02*
X85050000Y-109850000D01*
X85050000Y-109850000D02*
X91020000Y-109850000D01*
X85060000Y-97240000D02*
X85060000Y-99040000D01*
X85060000Y-99040000D02*
X85810000Y-99040000D01*
X85060000Y-100540000D02*
X85060000Y-106540000D01*
X85060000Y-106540000D02*
X85810000Y-106540000D01*
X85060000Y-108040000D02*
X85060000Y-109840000D01*
X85060000Y-109840000D02*
X85810000Y-109840000D01*
X85810000Y-97240000D02*
X85060000Y-97240000D01*
X85810000Y-99040000D02*
X85810000Y-97240000D01*
X85810000Y-100540000D02*
X85060000Y-100540000D01*
X85810000Y-106540000D02*
X85810000Y-100540000D01*
X85810000Y-108040000D02*
X85060000Y-108040000D01*
X85810000Y-109840000D02*
X85810000Y-108040000D01*
X87310000Y-97240000D02*
X87310000Y-97990000D01*
X87310000Y-97990000D02*
X90260000Y-97990000D01*
X87310000Y-109090000D02*
X90260000Y-109090000D01*
X87310000Y-109840000D02*
X87310000Y-109090000D01*
X90260000Y-97990000D02*
X90260000Y-103540000D01*
X90260000Y-109090000D02*
X90260000Y-103540000D01*
X91020000Y-97230000D02*
X85050000Y-97230000D01*
X91020000Y-109850000D02*
X91020000Y-97230000D01*
%TO.C,R7*%
X129630000Y-50570000D02*
X129630000Y-46730000D01*
X131470000Y-50570000D02*
X131470000Y-46730000D01*
%TO.C,J10*%
X158010000Y-105750000D02*
X158010000Y-95630000D01*
X158010000Y-95630000D02*
X152040000Y-95630000D01*
X157250000Y-104990000D02*
X157250000Y-100690000D01*
X157250000Y-96390000D02*
X157250000Y-100690000D01*
X154300000Y-105740000D02*
X154300000Y-104990000D01*
X154300000Y-104990000D02*
X157250000Y-104990000D01*
X154300000Y-96390000D02*
X157250000Y-96390000D01*
X154300000Y-95640000D02*
X154300000Y-96390000D01*
X152800000Y-105740000D02*
X152800000Y-103940000D01*
X152800000Y-103940000D02*
X152050000Y-103940000D01*
X152800000Y-102440000D02*
X152800000Y-98940000D01*
X152800000Y-98940000D02*
X152050000Y-98940000D01*
X152800000Y-97440000D02*
X152800000Y-95640000D01*
X152800000Y-95640000D02*
X152050000Y-95640000D01*
X152050000Y-105740000D02*
X152800000Y-105740000D01*
X152050000Y-103940000D02*
X152050000Y-105740000D01*
X152050000Y-102440000D02*
X152800000Y-102440000D01*
X152050000Y-98940000D02*
X152050000Y-102440000D01*
X152050000Y-97440000D02*
X152800000Y-97440000D01*
X152050000Y-95640000D02*
X152050000Y-97440000D01*
X152040000Y-105750000D02*
X158010000Y-105750000D01*
X152040000Y-95630000D02*
X152040000Y-105750000D01*
X151750000Y-106040000D02*
X153000000Y-106040000D01*
X151750000Y-104790000D02*
X151750000Y-106040000D01*
%TO.C,R10*%
X137880000Y-73760000D02*
X141720000Y-73760000D01*
X137880000Y-75600000D02*
X141720000Y-75600000D01*
%TO.C,J11*%
X100730000Y-49080000D02*
X102060000Y-49080000D01*
X100730000Y-50410000D02*
X100730000Y-49080000D01*
X103330000Y-49080000D02*
X116090000Y-49080000D01*
X103330000Y-51740000D02*
X103330000Y-49080000D01*
X103330000Y-51740000D02*
X116090000Y-51740000D01*
X116090000Y-51740000D02*
X116090000Y-49080000D01*
%TO.C,R6*%
X99160000Y-97390000D02*
X95320000Y-97390000D01*
X99160000Y-99230000D02*
X95320000Y-99230000D01*
%TO.C,J6*%
X102840000Y-58410000D02*
X102840000Y-106730000D01*
X102840000Y-58410000D02*
X105500000Y-58410000D01*
X102840000Y-106730000D02*
X105500000Y-106730000D01*
X104170000Y-55810000D02*
X105500000Y-55810000D01*
X105500000Y-55810000D02*
X105500000Y-57140000D01*
X105500000Y-58410000D02*
X105500000Y-106730000D01*
%TO.C,R9*%
X139010000Y-68740000D02*
X142850000Y-68740000D01*
X139010000Y-70580000D02*
X142850000Y-70580000D01*
%TO.C,J9*%
X90900000Y-120110000D02*
X90900000Y-132870000D01*
X90900000Y-120110000D02*
X93560000Y-120110000D01*
X90900000Y-132870000D02*
X93560000Y-132870000D01*
X92230000Y-117510000D02*
X93560000Y-117510000D01*
X93560000Y-117510000D02*
X93560000Y-118840000D01*
X93560000Y-120110000D02*
X93560000Y-132870000D01*
%TO.C,J8*%
X157480000Y-147030000D02*
X157480000Y-144370000D01*
X109160000Y-147030000D02*
X157480000Y-147030000D01*
X109160000Y-147030000D02*
X109160000Y-144370000D01*
X109160000Y-144370000D02*
X157480000Y-144370000D01*
X106560000Y-145700000D02*
X106560000Y-144370000D01*
X106560000Y-144370000D02*
X107890000Y-144370000D01*
%TO.C,J2*%
X157130000Y-39210000D02*
X157130000Y-37960000D01*
X156840000Y-38920000D02*
X156840000Y-32950000D01*
X156840000Y-32950000D02*
X144220000Y-32950000D01*
X156830000Y-38910000D02*
X156830000Y-38160000D01*
X156830000Y-38160000D02*
X155030000Y-38160000D01*
X156830000Y-36660000D02*
X156080000Y-36660000D01*
X156080000Y-36660000D02*
X156080000Y-33710000D01*
X156080000Y-33710000D02*
X150530000Y-33710000D01*
X155880000Y-39210000D02*
X157130000Y-39210000D01*
X155030000Y-38910000D02*
X156830000Y-38910000D01*
X155030000Y-38160000D02*
X155030000Y-38910000D01*
X153530000Y-38910000D02*
X153530000Y-38160000D01*
X153530000Y-38160000D02*
X147530000Y-38160000D01*
X147530000Y-38910000D02*
X153530000Y-38910000D01*
X147530000Y-38160000D02*
X147530000Y-38910000D01*
X146030000Y-38910000D02*
X146030000Y-38160000D01*
X146030000Y-38160000D02*
X144230000Y-38160000D01*
X144980000Y-36660000D02*
X144980000Y-33710000D01*
X144980000Y-33710000D02*
X150530000Y-33710000D01*
X144230000Y-38910000D02*
X146030000Y-38910000D01*
X144230000Y-38160000D02*
X144230000Y-38910000D01*
X144230000Y-36660000D02*
X144980000Y-36660000D01*
X144220000Y-38920000D02*
X156840000Y-38920000D01*
X144220000Y-32950000D02*
X144220000Y-38920000D01*
%TO.C,R4*%
X94610000Y-145750000D02*
X90770000Y-145750000D01*
X94610000Y-147590000D02*
X90770000Y-147590000D01*
%TO.C,J5*%
X127450000Y-58370000D02*
X127450000Y-106690000D01*
X127450000Y-58370000D02*
X130110000Y-58370000D01*
X127450000Y-106690000D02*
X130110000Y-106690000D01*
X128780000Y-55770000D02*
X130110000Y-55770000D01*
X130110000Y-55770000D02*
X130110000Y-57100000D01*
X130110000Y-58370000D02*
X130110000Y-106690000D01*
%TO.C,R5*%
X99450000Y-101200000D02*
X95610000Y-101200000D01*
X99450000Y-103040000D02*
X95610000Y-103040000D01*
%TO.C,R1*%
X96060000Y-141270000D02*
X96060000Y-137430000D01*
X97900000Y-141270000D02*
X97900000Y-137430000D01*
%TO.C,J4*%
X159120000Y-73330000D02*
X159120000Y-72080000D01*
X159120000Y-72080000D02*
X157870000Y-72080000D01*
X158830000Y-82490000D02*
X158830000Y-72370000D01*
X158830000Y-72370000D02*
X152860000Y-72370000D01*
X158820000Y-82480000D02*
X158820000Y-80680000D01*
X158820000Y-80680000D02*
X158070000Y-80680000D01*
X158820000Y-79180000D02*
X158820000Y-75680000D01*
X158820000Y-75680000D02*
X158070000Y-75680000D01*
X158820000Y-74180000D02*
X158820000Y-72380000D01*
X158820000Y-72380000D02*
X158070000Y-72380000D01*
X158070000Y-82480000D02*
X158820000Y-82480000D01*
X158070000Y-80680000D02*
X158070000Y-82480000D01*
X158070000Y-79180000D02*
X158820000Y-79180000D01*
X158070000Y-75680000D02*
X158070000Y-79180000D01*
X158070000Y-74180000D02*
X158820000Y-74180000D01*
X158070000Y-72380000D02*
X158070000Y-74180000D01*
X156570000Y-82480000D02*
X156570000Y-81730000D01*
X156570000Y-81730000D02*
X153620000Y-81730000D01*
X156570000Y-73130000D02*
X153620000Y-73130000D01*
X156570000Y-72380000D02*
X156570000Y-73130000D01*
X153620000Y-81730000D02*
X153620000Y-77430000D01*
X153620000Y-73130000D02*
X153620000Y-77430000D01*
X152860000Y-82490000D02*
X158830000Y-82490000D01*
X152860000Y-72370000D02*
X152860000Y-82490000D01*
%TO.C,R3*%
X94660000Y-148620000D02*
X90820000Y-148620000D01*
X94660000Y-150460000D02*
X90820000Y-150460000D01*
%TO.C,J13*%
X84660000Y-57830000D02*
X84660000Y-70450000D01*
X84660000Y-70450000D02*
X90630000Y-70450000D01*
X85420000Y-58590000D02*
X85420000Y-64140000D01*
X85420000Y-69690000D02*
X85420000Y-64140000D01*
X88370000Y-57840000D02*
X88370000Y-58590000D01*
X88370000Y-58590000D02*
X85420000Y-58590000D01*
X88370000Y-69690000D02*
X85420000Y-69690000D01*
X88370000Y-70440000D02*
X88370000Y-69690000D01*
X89870000Y-57840000D02*
X89870000Y-59640000D01*
X89870000Y-59640000D02*
X90620000Y-59640000D01*
X89870000Y-61140000D02*
X89870000Y-67140000D01*
X89870000Y-67140000D02*
X90620000Y-67140000D01*
X89870000Y-68640000D02*
X89870000Y-70440000D01*
X89870000Y-70440000D02*
X90620000Y-70440000D01*
X90620000Y-57840000D02*
X89870000Y-57840000D01*
X90620000Y-59640000D02*
X90620000Y-57840000D01*
X90620000Y-61140000D02*
X89870000Y-61140000D01*
X90620000Y-67140000D02*
X90620000Y-61140000D01*
X90620000Y-68640000D02*
X89870000Y-68640000D01*
X90620000Y-70440000D02*
X90620000Y-68640000D01*
X90630000Y-57830000D02*
X84660000Y-57830000D01*
X90630000Y-70450000D02*
X90630000Y-57830000D01*
X90920000Y-57540000D02*
X89670000Y-57540000D01*
X90920000Y-58790000D02*
X90920000Y-57540000D01*
%TO.C,J15*%
X152540000Y-92000000D02*
X152540000Y-93250000D01*
X152540000Y-93250000D02*
X153790000Y-93250000D01*
X152830000Y-85340000D02*
X152830000Y-92960000D01*
X152830000Y-92960000D02*
X158800000Y-92960000D01*
X152840000Y-85350000D02*
X152840000Y-87150000D01*
X152840000Y-87150000D02*
X153590000Y-87150000D01*
X152840000Y-88650000D02*
X152840000Y-89650000D01*
X152840000Y-89650000D02*
X153590000Y-89650000D01*
X152840000Y-91150000D02*
X152840000Y-92950000D01*
X152840000Y-92950000D02*
X153590000Y-92950000D01*
X153590000Y-85350000D02*
X152840000Y-85350000D01*
X153590000Y-87150000D02*
X153590000Y-85350000D01*
X153590000Y-88650000D02*
X152840000Y-88650000D01*
X153590000Y-89650000D02*
X153590000Y-88650000D01*
X153590000Y-91150000D02*
X152840000Y-91150000D01*
X153590000Y-92950000D02*
X153590000Y-91150000D01*
X155090000Y-85350000D02*
X155090000Y-86100000D01*
X155090000Y-86100000D02*
X158040000Y-86100000D01*
X155090000Y-92200000D02*
X158040000Y-92200000D01*
X155090000Y-92950000D02*
X155090000Y-92200000D01*
X158040000Y-86100000D02*
X158040000Y-89150000D01*
X158040000Y-92200000D02*
X158040000Y-89150000D01*
X158800000Y-85340000D02*
X152830000Y-85340000D01*
X158800000Y-92960000D02*
X158800000Y-85340000D01*
%TO.C,J7*%
X157440000Y-120810000D02*
X157440000Y-118150000D01*
X109120000Y-120810000D02*
X157440000Y-120810000D01*
X109120000Y-120810000D02*
X109120000Y-118150000D01*
X109120000Y-118150000D02*
X157440000Y-118150000D01*
X106520000Y-119480000D02*
X106520000Y-118150000D01*
X106520000Y-118150000D02*
X107850000Y-118150000D01*
%TO.C,J14*%
X84610000Y-71980000D02*
X84610000Y-82100000D01*
X84610000Y-82100000D02*
X90580000Y-82100000D01*
X85370000Y-72740000D02*
X85370000Y-77040000D01*
X85370000Y-81340000D02*
X85370000Y-77040000D01*
X88320000Y-71990000D02*
X88320000Y-72740000D01*
X88320000Y-72740000D02*
X85370000Y-72740000D01*
X88320000Y-81340000D02*
X85370000Y-81340000D01*
X88320000Y-82090000D02*
X88320000Y-81340000D01*
X89820000Y-71990000D02*
X89820000Y-73790000D01*
X89820000Y-73790000D02*
X90570000Y-73790000D01*
X89820000Y-75290000D02*
X89820000Y-78790000D01*
X89820000Y-78790000D02*
X90570000Y-78790000D01*
X89820000Y-80290000D02*
X89820000Y-82090000D01*
X89820000Y-82090000D02*
X90570000Y-82090000D01*
X90570000Y-71990000D02*
X89820000Y-71990000D01*
X90570000Y-73790000D02*
X90570000Y-71990000D01*
X90570000Y-75290000D02*
X89820000Y-75290000D01*
X90570000Y-78790000D02*
X90570000Y-75290000D01*
X90570000Y-80290000D02*
X89820000Y-80290000D01*
X90570000Y-82090000D02*
X90570000Y-80290000D01*
X90580000Y-71980000D02*
X84610000Y-71980000D01*
X90580000Y-82100000D02*
X90580000Y-71980000D01*
X90870000Y-71690000D02*
X89620000Y-71690000D01*
X90870000Y-72940000D02*
X90870000Y-71690000D01*
%TO.C,J12*%
X143230000Y-113270000D02*
X143230000Y-114520000D01*
X143230000Y-114520000D02*
X144480000Y-114520000D01*
X143520000Y-106610000D02*
X143520000Y-114230000D01*
X143520000Y-114230000D02*
X149490000Y-114230000D01*
X143530000Y-106620000D02*
X143530000Y-108420000D01*
X143530000Y-108420000D02*
X144280000Y-108420000D01*
X143530000Y-109920000D02*
X143530000Y-110920000D01*
X143530000Y-110920000D02*
X144280000Y-110920000D01*
X143530000Y-112420000D02*
X143530000Y-114220000D01*
X143530000Y-114220000D02*
X144280000Y-114220000D01*
X144280000Y-106620000D02*
X143530000Y-106620000D01*
X144280000Y-108420000D02*
X144280000Y-106620000D01*
X144280000Y-109920000D02*
X143530000Y-109920000D01*
X144280000Y-110920000D02*
X144280000Y-109920000D01*
X144280000Y-112420000D02*
X143530000Y-112420000D01*
X144280000Y-114220000D02*
X144280000Y-112420000D01*
X145780000Y-106620000D02*
X145780000Y-107370000D01*
X145780000Y-107370000D02*
X148730000Y-107370000D01*
X145780000Y-113470000D02*
X148730000Y-113470000D01*
X145780000Y-114220000D02*
X145780000Y-113470000D01*
X148730000Y-107370000D02*
X148730000Y-110420000D01*
X148730000Y-113470000D02*
X148730000Y-110420000D01*
X149490000Y-106610000D02*
X143520000Y-106610000D01*
X149490000Y-114230000D02*
X149490000Y-106610000D01*
%TD*%
M02*
