M48
; DRILL file {KiCad 8.0.8-8.0.8-0~ubuntu24.04.1} date 2025-01-19T21:36:16-0300
; FORMAT={-:-/ absolute / inch / decimal}
; #@! TF.CreationDate,2025-01-19T21:36:16-03:00
; #@! TF.GenerationSoftware,Kicad,Pcbnew,8.0.8-8.0.8-0~ubuntu24.04.1
; #@! TF.FileFunction,Plated,1,2,PTH
FMAT,2
INCH
; #@! TA.AperFunction,Plated,PTH,ComponentDrill
T1C0.0276
; #@! TA.AperFunction,Plated,PTH,ComponentDrill
T2C0.0374
; #@! TA.AperFunction,Plated,PTH,ComponentDrill
T3C0.0394
%
G90
G05
T1
X3.5492Y-5.7744
X3.5512Y-5.8874
X3.7283Y-3.8705
X3.7398Y-4.0205
X3.7492Y-5.7744
X3.7512Y-5.8874
X3.8181Y-5.3862
X3.8181Y-5.5862
X3.8602Y-4.8441
X3.8602Y-5.0441
X3.9283Y-3.8705
X3.9398Y-4.0205
X5.0138Y-1.8157
X5.0138Y-2.0157
X5.1398Y-1.8154
X5.1398Y-2.0154
X5.4039Y-2.9402
X5.4484Y-2.7425
X5.6039Y-2.9402
X5.6484Y-2.7425
T2
X3.4453Y-3.9287
X3.4453Y-4.0272
X3.4453Y-4.1256
X3.4453Y-4.224
X3.4693Y-2.9346
X3.4693Y-3.0331
X3.4693Y-3.1315
X3.4713Y-2.3776
X3.4713Y-2.476
X3.4713Y-2.5744
X3.4713Y-2.6728
X5.7787Y-1.4354
X5.8772Y-1.4354
X5.9756Y-1.4354
X6.074Y-1.4354
X6.0827Y-3.8657
X6.0827Y-3.9642
X6.0827Y-4.0626
X6.1406Y-2.3039
X6.1406Y-2.4024
X6.1406Y-2.5008
X6.1406Y-2.5992
X6.1563Y-2.95
X6.1563Y-3.0484
X6.1563Y-3.1469
T3
X3.6311Y-4.6787
X3.6311Y-4.7787
X3.6311Y-4.8787
X3.6311Y-4.9787
X3.6311Y-5.0787
X3.6311Y-5.1787
X4.0181Y-1.9846
X4.1012Y-2.2496
X4.1012Y-2.3496
X4.1012Y-2.4496
X4.1012Y-2.5496
X4.1012Y-2.6496
X4.1012Y-2.7496
X4.1012Y-2.8496
X4.1012Y-2.9496
X4.1012Y-3.0496
X4.1012Y-3.1496
X4.1012Y-3.2496
X4.1012Y-3.3496
X4.1012Y-3.4496
X4.1012Y-3.5496
X4.1012Y-3.6496
X4.1012Y-3.7496
X4.1012Y-3.8496
X4.1012Y-3.9496
X4.1012Y-4.0496
X4.1012Y-4.1496
X4.1181Y-1.9846
X4.2181Y-1.9846
X4.2461Y-4.7039
X4.2476Y-5.7362
X4.3181Y-1.9846
X4.3461Y-4.7039
X4.3476Y-5.7362
X4.4181Y-1.9846
X4.4461Y-4.7039
X4.4476Y-5.7362
X4.5181Y-1.9846
X4.5461Y-4.7039
X4.5476Y-5.7362
X4.6461Y-4.7039
X4.6476Y-5.7362
X4.7461Y-4.7039
X4.7476Y-5.7362
X4.8461Y-4.7039
X4.8476Y-5.7362
X4.9461Y-4.7039
X4.9476Y-5.7362
X5.0461Y-4.7039
X5.0476Y-5.7362
X5.0701Y-2.248
X5.0701Y-2.348
X5.0701Y-2.448
X5.0701Y-2.548
X5.0701Y-2.648
X5.0701Y-2.748
X5.0701Y-2.848
X5.0701Y-2.948
X5.0701Y-3.048
X5.0701Y-3.148
X5.0701Y-3.248
X5.0701Y-3.348
X5.0701Y-3.448
X5.0701Y-3.548
X5.0701Y-3.648
X5.0701Y-3.748
X5.0701Y-3.848
X5.0701Y-3.948
X5.0701Y-4.048
X5.0701Y-4.148
X5.1461Y-4.7039
X5.1476Y-5.7362
X5.2461Y-4.7039
X5.2476Y-5.7362
X5.3461Y-4.7039
X5.3476Y-5.7362
X5.4461Y-4.7039
X5.4476Y-5.7362
X5.5461Y-4.7039
X5.5476Y-5.7362
X5.6461Y-4.7039
X5.6476Y-5.7362
X5.7461Y-4.7039
X5.7472Y-4.298
X5.7472Y-4.3965
X5.7476Y-5.7362
X5.8461Y-4.7039
X5.8476Y-5.7362
X5.9461Y-4.7039
X5.9476Y-5.7362
X6.0461Y-4.7039
X6.0476Y-5.7362
X6.1138Y-3.4606
X6.1138Y-3.5591
X6.1461Y-4.7039
X6.1476Y-5.7362
M30
