%TF.GenerationSoftware,KiCad,Pcbnew,8.0.8-8.0.8-0~ubuntu24.04.1*%
%TF.CreationDate,2025-01-19T21:36:14-03:00*%
%TF.ProjectId,conection,636f6e65-6374-4696-9f6e-2e6b69636164,rev?*%
%TF.SameCoordinates,Original*%
%TF.FileFunction,Drillmap*%
%TF.FilePolarity,Positive*%
%FSLAX45Y45*%
G04 Gerber Fmt 4.5, Leading zero omitted, Abs format (unit mm)*
G04 Created by KiCad (PCBNEW 8.0.8-8.0.8-0~ubuntu24.04.1) date 2025-01-19 21:36:14*
%MOMM*%
%LPD*%
G01*
G04 APERTURE LIST*
%ADD10C,0.050000*%
%ADD11C,0.200000*%
G04 APERTURE END LIST*
D10*
X7698000Y-2830000D02*
X16305000Y-2830000D01*
X16305000Y-15380000D01*
X7698000Y-15380000D01*
X7698000Y-2830000D01*
D11*
X7956277Y-15693984D02*
X7956277Y-15493984D01*
X7956277Y-15493984D02*
X8003896Y-15493984D01*
X8003896Y-15493984D02*
X8032467Y-15503508D01*
X8032467Y-15503508D02*
X8051515Y-15522555D01*
X8051515Y-15522555D02*
X8061039Y-15541603D01*
X8061039Y-15541603D02*
X8070562Y-15579698D01*
X8070562Y-15579698D02*
X8070562Y-15608269D01*
X8070562Y-15608269D02*
X8061039Y-15646365D01*
X8061039Y-15646365D02*
X8051515Y-15665412D01*
X8051515Y-15665412D02*
X8032467Y-15684460D01*
X8032467Y-15684460D02*
X8003896Y-15693984D01*
X8003896Y-15693984D02*
X7956277Y-15693984D01*
X8156277Y-15693984D02*
X8156277Y-15560650D01*
X8156277Y-15598746D02*
X8165801Y-15579698D01*
X8165801Y-15579698D02*
X8175324Y-15570174D01*
X8175324Y-15570174D02*
X8194372Y-15560650D01*
X8194372Y-15560650D02*
X8213420Y-15560650D01*
X8280086Y-15693984D02*
X8280086Y-15560650D01*
X8280086Y-15493984D02*
X8270562Y-15503508D01*
X8270562Y-15503508D02*
X8280086Y-15513031D01*
X8280086Y-15513031D02*
X8289610Y-15503508D01*
X8289610Y-15503508D02*
X8280086Y-15493984D01*
X8280086Y-15493984D02*
X8280086Y-15513031D01*
X8403896Y-15693984D02*
X8384848Y-15684460D01*
X8384848Y-15684460D02*
X8375324Y-15665412D01*
X8375324Y-15665412D02*
X8375324Y-15493984D01*
X8508658Y-15693984D02*
X8489610Y-15684460D01*
X8489610Y-15684460D02*
X8480086Y-15665412D01*
X8480086Y-15665412D02*
X8480086Y-15493984D01*
X8737229Y-15693984D02*
X8737229Y-15493984D01*
X8737229Y-15493984D02*
X8803896Y-15636841D01*
X8803896Y-15636841D02*
X8870563Y-15493984D01*
X8870563Y-15493984D02*
X8870563Y-15693984D01*
X9051515Y-15693984D02*
X9051515Y-15589222D01*
X9051515Y-15589222D02*
X9041991Y-15570174D01*
X9041991Y-15570174D02*
X9022944Y-15560650D01*
X9022944Y-15560650D02*
X8984848Y-15560650D01*
X8984848Y-15560650D02*
X8965801Y-15570174D01*
X9051515Y-15684460D02*
X9032467Y-15693984D01*
X9032467Y-15693984D02*
X8984848Y-15693984D01*
X8984848Y-15693984D02*
X8965801Y-15684460D01*
X8965801Y-15684460D02*
X8956277Y-15665412D01*
X8956277Y-15665412D02*
X8956277Y-15646365D01*
X8956277Y-15646365D02*
X8965801Y-15627317D01*
X8965801Y-15627317D02*
X8984848Y-15617793D01*
X8984848Y-15617793D02*
X9032467Y-15617793D01*
X9032467Y-15617793D02*
X9051515Y-15608269D01*
X9146753Y-15560650D02*
X9146753Y-15760650D01*
X9146753Y-15570174D02*
X9165801Y-15560650D01*
X9165801Y-15560650D02*
X9203896Y-15560650D01*
X9203896Y-15560650D02*
X9222944Y-15570174D01*
X9222944Y-15570174D02*
X9232467Y-15579698D01*
X9232467Y-15579698D02*
X9241991Y-15598746D01*
X9241991Y-15598746D02*
X9241991Y-15655888D01*
X9241991Y-15655888D02*
X9232467Y-15674936D01*
X9232467Y-15674936D02*
X9222944Y-15684460D01*
X9222944Y-15684460D02*
X9203896Y-15693984D01*
X9203896Y-15693984D02*
X9165801Y-15693984D01*
X9165801Y-15693984D02*
X9146753Y-15684460D01*
X9327705Y-15674936D02*
X9337229Y-15684460D01*
X9337229Y-15684460D02*
X9327705Y-15693984D01*
X9327705Y-15693984D02*
X9318182Y-15684460D01*
X9318182Y-15684460D02*
X9327705Y-15674936D01*
X9327705Y-15674936D02*
X9327705Y-15693984D01*
X9327705Y-15570174D02*
X9337229Y-15579698D01*
X9337229Y-15579698D02*
X9327705Y-15589222D01*
X9327705Y-15589222D02*
X9318182Y-15579698D01*
X9318182Y-15579698D02*
X9327705Y-15570174D01*
X9327705Y-15570174D02*
X9327705Y-15589222D01*
M02*
